<svg id="Icon_ionic-ios-notifications" data-name="Icon ionic-ios-notifications" xmlns="http://www.w3.org/2000/svg" width="20.214" height="25.283" viewBox="0 0 20.214 25.283">
  <path id="Path_5" data-name="Path 5" d="M17.65,31.685c1.965,0,3.039-1.39,3.039-3.349H14.6C14.6,30.295,15.678,31.685,17.65,31.685Z" transform="translate(-7.555 -6.403)" fill="#fff"/>
  <path id="Path_6" data-name="Path 6" d="M26.719,22.653c-.973-1.283-2.888-2.035-2.888-7.779,0-5.9-2.6-8.265-5.03-8.834-.227-.057-.392-.133-.392-.373V5.485a1.542,1.542,0,1,0-3.084,0v.183c0,.234-.164.316-.392.373C12.5,6.616,9.9,8.979,9.9,14.875c0,5.744-1.915,6.49-2.888,7.779a1.254,1.254,0,0,0,1,2.009h17.7A1.255,1.255,0,0,0,26.719,22.653Z" transform="translate(-6.761 -3.93)" fill="#fff"/>
</svg>
