<svg xmlns="http://www.w3.org/2000/svg" width="26.417" height="25.234" viewBox="0 0 26.417 25.234">
  <path id="Icon_awesome-search" data-name="Icon awesome-search" d="M25.072,20.869l-4.95-4.7a1.224,1.224,0,0,0-.844-.33h-.809a9.448,9.448,0,0,0,2.184-6.034A10.074,10.074,0,0,0,10.327,0,10.074,10.074,0,0,0,0,9.805,10.074,10.074,0,0,0,10.327,19.61a10.629,10.629,0,0,0,6.355-2.074V18.3a1.1,1.1,0,0,0,.348.8l4.95,4.7a1.232,1.232,0,0,0,1.683,0l1.405-1.334a1.1,1.1,0,0,0,0-1.6Zm-14.745-5.03A6.2,6.2,0,0,1,3.972,9.805a6.2,6.2,0,0,1,6.355-6.034,6.2,6.2,0,0,1,6.355,6.034A6.2,6.2,0,0,1,10.327,15.839Z" transform="translate(0.5 0.5)" fill="none" stroke="#bdbdbd" stroke-width="1"/>
</svg>
