<svg xmlns="http://www.w3.org/2000/svg" width="198.448" height="75.951" viewBox="0 0 198.448 75.951">
  <g id="Group_252" data-name="Group 252" transform="translate(13819.221 22405)">
    <path id="Path_1" data-name="Path 1" d="M59.8,69.476A12.729,12.729,0,0,1,47.074,56.747V34.431c0-6.318-3.63-10.181-9.308-10.181S28.6,28.125,28.6,34.431V56.747A12.729,12.729,0,0,1,15.8,69.476h-.1A12.729,12.729,0,0,1,3,56.747V38.713" transform="translate(-13819.221 -22401.525)" fill="none" stroke="#fff" stroke-miterlimit="10" stroke-width="6"/>
    <path id="Path_2" data-name="Path 2" d="M23.93,8.87c13.415-6.295,27.215-3.211,36.011,6.62,6,6.7,9.169,16.708,9.169,25.725V59.833" transform="translate(-13815.798 -22404.576)" fill="none" stroke="#fff" stroke-miterlimit="10" stroke-width="6"/>
    <path id="Path_3" data-name="Path 3" d="M3,31.727v-17C3,8.247,8.818,3,15.915,3h0C23.048,3,28.83,8.247,28.83,14.728v.733" transform="translate(-13819.221 -22405)" fill="none" stroke="#fff" stroke-miterlimit="10" stroke-width="6"/>
    <circle id="Ellipse_2" data-name="Ellipse 2" cx="4.829" cy="4.829" r="4.829" transform="translate(-13756.822 -22342.846)" fill="none" stroke="#fff" stroke-miterlimit="10" stroke-width="1"/>
    <text id="R" transform="translate(-13753.739 -22337.496)" fill="#fff" font-size="5" font-family="SegoeUI, Segoe UI"><tspan x="0" y="0">R</tspan></text>
    <text id="nqde" transform="translate(-13732.772 -22345.469)" fill="#fff" font-size="49" font-family="SegoeUI, Segoe UI"><tspan x="0" y="0">nqde</tspan></text>
  </g>
</svg>
